<?xml version='1.0' encoding='UTF-8'?>
<svg viewBox="-2 -2 32 32" xmlns="http://www.w3.org/2000/svg" xmlns:xlink="http://www.w3.org/1999/xlink">
  <g id="Layer_1" transform="translate(-2, -2.00000023841858)" style="enable-background:new 0 0 32 32">
    <g id="DesktopWindows">
      <path d="M28, 4L4, 4C2.9, 4 2, 4.9 2, 6L2, 20C2, 21.1 2.9, 22 4, 22L12, 22L12, 26L8, 26L8, 28L24, 28L24, 26L20, 26L20, 22L28, 22C29.1, 22 30, 21.1 30, 20L30, 6C30, 4.9 29.1, 4 28, 4zM28, 20L4, 20L4, 6L28, 6L28, 20z" fill="#727272" class="Black" />
    </g>
  </g>
  <g id="Layer_1" transform="translate(10.0000009536743, 0) rotate(90, 7.99999952316284, 7.99999952316284)" style="enable-background:new 0 0 16 16">
    <g id="Redo_2_">
      <path d="M10, 4L10, 0L16, 6L10, 12L10, 8C5.2, 8 1.1, 11.4 0.2, 16C0.1, 15.4 0, 14.7 0, 14C0, 8.5 4.5, 4 10, 4z" fill="#1177D7" class="Blue" />
    </g>
  </g>
</svg>